<?xml version="1.0" standalone="yes"?><svg xmlns="http://www.w3.org/2000/svg" version="1.1" width="312" height="312" viewBox="0 0 312 312" shape-rendering="crispEdges"><rect x="0" y="0" width="312" height="312" fill="white"/><path fill="black" d="M40 40h8v8H40V40M48 40h8v8H48V40M56 40h8v8H56V40M64 40h8v8H64V40M72 40h8v8H72V40M80 40h8v8H80V40M88 40h8v8H88V40M112 40h8v8H112V40M128 40h8v8H128V40M136 40h8v8H136V40M144 40h8v8H144V40M168 40h8v8H168V40M176 40h8v8H176V40M184 40h8v8H184V40M192 40h8v8H192V40M216 40h8v8H216V40M224 40h8v8H224V40M232 40h8v8H232V40M240 40h8v8H240V40M248 40h8v8H248V40M256 40h8v8H256V40M264 40h8v8H264V40M40 48h8v8H40V48M88 48h8v8H88V48M104 48h8v8H104V48M112 48h8v8H112V48M120 48h8v8H120V48M136 48h8v8H136V48M152 48h8v8H152V48M160 48h8v8H160V48M168 48h8v8H168V48M184 48h8v8H184V48M192 48h8v8H192V48M200 48h8v8H200V48M216 48h8v8H216V48M264 48h8v8H264V48M40 56h8v8H40V56M56 56h8v8H56V56M64 56h8v8H64V56M72 56h8v8H72V56M88 56h8v8H88V56M112 56h8v8H112V56M120 56h8v8H120V56M128 56h8v8H128V56M144 56h8v8H144V56M152 56h8v8H152V56M168 56h8v8H168V56M184 56h8v8H184V56M216 56h8v8H216V56M232 56h8v8H232V56M240 56h8v8H240V56M248 56h8v8H248V56M264 56h8v8H264V56M40 64h8v8H40V64M56 64h8v8H56V64M64 64h8v8H64V64M72 64h8v8H72V64M88 64h8v8H88V64M112 64h8v8H112V64M136 64h8v8H136V64M144 64h8v8H144V64M152 64h8v8H152V64M160 64h8v8H160V64M192 64h8v8H192V64M200 64h8v8H200V64M216 64h8v8H216V64M232 64h8v8H232V64M240 64h8v8H240V64M248 64h8v8H248V64M264 64h8v8H264V64M40 72h8v8H40V72M56 72h8v8H56V72M64 72h8v8H64V72M72 72h8v8H72V72M88 72h8v8H88V72M104 72h8v8H104V72M128 72h8v8H128V72M136 72h8v8H136V72M152 72h8v8H152V72M176 72h8v8H176V72M184 72h8v8H184V72M192 72h8v8H192V72M216 72h8v8H216V72M232 72h8v8H232V72M240 72h8v8H240V72M248 72h8v8H248V72M264 72h8v8H264V72M40 80h8v8H40V80M88 80h8v8H88V80M128 80h8v8H128V80M136 80h8v8H136V80M144 80h8v8H144V80M184 80h8v8H184V80M192 80h8v8H192V80M216 80h8v8H216V80M264 80h8v8H264V80M40 88h8v8H40V88M48 88h8v8H48V88M56 88h8v8H56V88M64 88h8v8H64V88M72 88h8v8H72V88M80 88h8v8H80V88M88 88h8v8H88V88M104 88h8v8H104V88M120 88h8v8H120V88M136 88h8v8H136V88M152 88h8v8H152V88M168 88h8v8H168V88M184 88h8v8H184V88M200 88h8v8H200V88M216 88h8v8H216V88M224 88h8v8H224V88M232 88h8v8H232V88M240 88h8v8H240V88M248 88h8v8H248V88M256 88h8v8H256V88M264 88h8v8H264V88M112 96h8v8H112V96M120 96h8v8H120V96M128 96h8v8H128V96M136 96h8v8H136V96M144 96h8v8H144V96M152 96h8v8H152V96M168 96h8v8H168V96M176 96h8v8H176V96M192 96h8v8H192V96M40 104h8v8H40V104M56 104h8v8H56V104M72 104h8v8H72V104M88 104h8v8H88V104M112 104h8v8H112V104M120 104h8v8H120V104M128 104h8v8H128V104M152 104h8v8H152V104M160 104h8v8H160V104M176 104h8v8H176V104M192 104h8v8H192V104M200 104h8v8H200V104M232 104h8v8H232V104M256 104h8v8H256V104M48 112h8v8H48V112M64 112h8v8H64V112M80 112h8v8H80V112M96 112h8v8H96V112M112 112h8v8H112V112M128 112h8v8H128V112M136 112h8v8H136V112M152 112h8v8H152V112M160 112h8v8H160V112M176 112h8v8H176V112M200 112h8v8H200V112M216 112h8v8H216V112M240 112h8v8H240V112M264 112h8v8H264V112M64 120h8v8H64V120M88 120h8v8H88V120M96 120h8v8H96V120M104 120h8v8H104V120M112 120h8v8H112V120M120 120h8v8H120V120M136 120h8v8H136V120M144 120h8v8H144V120M176 120h8v8H176V120M184 120h8v8H184V120M216 120h8v8H216V120M224 120h8v8H224V120M232 120h8v8H232V120M248 120h8v8H248V120M256 120h8v8H256V120M264 120h8v8H264V120M64 128h8v8H64V128M104 128h8v8H104V128M120 128h8v8H120V128M136 128h8v8H136V128M160 128h8v8H160V128M176 128h8v8H176V128M184 128h8v8H184V128M208 128h8v8H208V128M216 128h8v8H216V128M256 128h8v8H256V128M88 136h8v8H88V136M128 136h8v8H128V136M136 136h8v8H136V136M168 136h8v8H168V136M176 136h8v8H176V136M200 136h8v8H200V136M208 136h8v8H208V136M216 136h8v8H216V136M240 136h8v8H240V136M256 136h8v8H256V136M264 136h8v8H264V136M40 144h8v8H40V144M64 144h8v8H64V144M72 144h8v8H72V144M80 144h8v8H80V144M96 144h8v8H96V144M104 144h8v8H104V144M112 144h8v8H112V144M120 144h8v8H120V144M128 144h8v8H128V144M136 144h8v8H136V144M144 144h8v8H144V144M160 144h8v8H160V144M168 144h8v8H168V144M200 144h8v8H200V144M216 144h8v8H216V144M240 144h8v8H240V144M264 144h8v8H264V144M72 152h8v8H72V152M88 152h8v8H88V152M96 152h8v8H96V152M112 152h8v8H112V152M120 152h8v8H120V152M128 152h8v8H128V152M152 152h8v8H152V152M160 152h8v8H160V152M168 152h8v8H168V152M216 152h8v8H216V152M232 152h8v8H232V152M240 152h8v8H240V152M256 152h8v8H256V152M264 152h8v8H264V152M48 160h8v8H48V160M72 160h8v8H72V160M80 160h8v8H80V160M128 160h8v8H128V160M136 160h8v8H136V160M144 160h8v8H144V160M152 160h8v8H152V160M168 160h8v8H168V160M176 160h8v8H176V160M200 160h8v8H200V160M216 160h8v8H216V160M224 160h8v8H224V160M232 160h8v8H232V160M240 160h8v8H240V160M256 160h8v8H256V160M40 168h8v8H40V168M48 168h8v8H48V168M64 168h8v8H64V168M80 168h8v8H80V168M88 168h8v8H88V168M96 168h8v8H96V168M104 168h8v8H104V168M120 168h8v8H120V168M152 168h8v8H152V168M160 168h8v8H160V168M176 168h8v8H176V168M200 168h8v8H200V168M208 168h8v8H208V168M216 168h8v8H216V168M240 168h8v8H240V168M256 168h8v8H256V168M264 168h8v8H264V168M48 176h8v8H48V176M56 176h8v8H56V176M80 176h8v8H80V176M120 176h8v8H120V176M128 176h8v8H128V176M136 176h8v8H136V176M152 176h8v8H152V176M160 176h8v8H160V176M176 176h8v8H176V176M184 176h8v8H184V176M200 176h8v8H200V176M216 176h8v8H216V176M240 176h8v8H240V176M248 176h8v8H248V176M264 176h8v8H264V176M40 184h8v8H40V184M64 184h8v8H64V184M72 184h8v8H72V184M80 184h8v8H80V184M88 184h8v8H88V184M104 184h8v8H104V184M144 184h8v8H144V184M200 184h8v8H200V184M208 184h8v8H208V184M216 184h8v8H216V184M224 184h8v8H224V184M232 184h8v8H232V184M256 184h8v8H256V184M264 184h8v8H264V184M48 192h8v8H48V192M72 192h8v8H72V192M80 192h8v8H80V192M96 192h8v8H96V192M112 192h8v8H112V192M120 192h8v8H120V192M160 192h8v8H160V192M176 192h8v8H176V192M184 192h8v8H184V192M200 192h8v8H200V192M208 192h8v8H208V192M232 192h8v8H232V192M240 192h8v8H240V192M256 192h8v8H256V192M40 200h8v8H40V200M64 200h8v8H64V200M72 200h8v8H72V200M88 200h8v8H88V200M112 200h8v8H112V200M120 200h8v8H120V200M136 200h8v8H136V200M168 200h8v8H168V200M176 200h8v8H176V200M192 200h8v8H192V200M200 200h8v8H200V200M208 200h8v8H208V200M216 200h8v8H216V200M224 200h8v8H224V200M232 200h8v8H232V200M104 208h8v8H104V208M112 208h8v8H112V208M120 208h8v8H120V208M136 208h8v8H136V208M144 208h8v8H144V208M160 208h8v8H160V208M168 208h8v8H168V208M176 208h8v8H176V208M192 208h8v8H192V208M200 208h8v8H200V208M232 208h8v8H232V208M248 208h8v8H248V208M256 208h8v8H256V208M264 208h8v8H264V208M40 216h8v8H40V216M48 216h8v8H48V216M56 216h8v8H56V216M64 216h8v8H64V216M72 216h8v8H72V216M80 216h8v8H80V216M88 216h8v8H88V216M120 216h8v8H120V216M128 216h8v8H128V216M152 216h8v8H152V216M160 216h8v8H160V216M168 216h8v8H168V216M176 216h8v8H176V216M184 216h8v8H184V216M192 216h8v8H192V216M200 216h8v8H200V216M216 216h8v8H216V216M232 216h8v8H232V216M240 216h8v8H240V216M256 216h8v8H256V216M264 216h8v8H264V216M40 224h8v8H40V224M88 224h8v8H88V224M144 224h8v8H144V224M152 224h8v8H152V224M168 224h8v8H168V224M176 224h8v8H176V224M200 224h8v8H200V224M232 224h8v8H232V224M240 224h8v8H240V224M256 224h8v8H256V224M40 232h8v8H40V232M56 232h8v8H56V232M64 232h8v8H64V232M72 232h8v8H72V232M88 232h8v8H88V232M104 232h8v8H104V232M112 232h8v8H112V232M128 232h8v8H128V232M136 232h8v8H136V232M152 232h8v8H152V232M160 232h8v8H160V232M184 232h8v8H184V232M200 232h8v8H200V232M208 232h8v8H208V232M216 232h8v8H216V232M224 232h8v8H224V232M232 232h8v8H232V232M256 232h8v8H256V232M40 240h8v8H40V240M56 240h8v8H56V240M64 240h8v8H64V240M72 240h8v8H72V240M88 240h8v8H88V240M120 240h8v8H120V240M128 240h8v8H128V240M136 240h8v8H136V240M152 240h8v8H152V240M160 240h8v8H160V240M224 240h8v8H224V240M232 240h8v8H232V240M248 240h8v8H248V240M40 248h8v8H40V248M56 248h8v8H56V248M64 248h8v8H64V248M72 248h8v8H72V248M88 248h8v8H88V248M104 248h8v8H104V248M112 248h8v8H112V248M136 248h8v8H136V248M144 248h8v8H144V248M176 248h8v8H176V248M208 248h8v8H208V248M224 248h8v8H224V248M232 248h8v8H232V248M240 248h8v8H240V248M264 248h8v8H264V248M40 256h8v8H40V256M88 256h8v8H88V256M120 256h8v8H120V256M144 256h8v8H144V256M152 256h8v8H152V256M160 256h8v8H160V256M192 256h8v8H192V256M200 256h8v8H200V256M256 256h8v8H256V256M40 264h8v8H40V264M48 264h8v8H48V264M56 264h8v8H56V264M64 264h8v8H64V264M72 264h8v8H72V264M80 264h8v8H80V264M88 264h8v8H88V264M104 264h8v8H104V264M120 264h8v8H120V264M144 264h8v8H144V264M152 264h8v8H152V264M168 264h8v8H168V264M192 264h8v8H192V264M200 264h8v8H200V264M208 264h8v8H208V264M232 264h8v8H232V264M256 264h8v8H256V264M264 264h8v8H264V264"/></svg>